<svg xmlns="http://www.w3.org/2000/svg" viewBox="0 0 800 900">
  <defs><linearGradient id="g" y2="1"><stop stop-color="#e7d9cc"/><stop offset="1" stop-color="#c29f86"/></linearGradient><pattern id="p" width="58" height="58" patternUnits="userSpaceOnUse"><path d="M0 29h58M29 0v58" stroke="#fff" stroke-width="5" opacity=".35"/></pattern></defs><rect width="800" height="900" rx="55" fill="url(#g)"/>
  <path d="M127 241c0-39 32-71 71-71h404c39 0 71 32 71 71v418c0 39-32 71-71 71H198c-39 0-71-32-71-71V241Z" fill="#f7f1e8" stroke="#1c1c1a" stroke-width="18"/><path d="M165 330h470v338H165z" fill="#90bfe8"/><path d="M165 330h470v338H165z" fill="url(#p)"/><path d="M165 330h470M293 330v338M507 330v338" stroke="#1c1c1a" stroke-width="12"/><path d="M204 170v160m392-160v160" stroke="#1c1c1a" stroke-width="18"/>
  <circle cx="650" cy="180" r="72" fill="#f26b4f"/>
</svg>
